<svg width="65" height="65" viewBox="0 0 65 65" fill="none" xmlns="http://www.w3.org/2000/svg">
<rect x="0.5" y="0.5" width="64" height="64" rx="10" fill="url(#paint0_linear_438_642)"/>
<g clip-path="url(#clip0_438_642)">
<g clip-path="url(#clip1_438_642)">
<g clip-path="url(#clip2_438_642)">
<path d="M28.7825 35.3986C28.7834 35.2918 28.7633 35.1858 28.7232 35.0868C28.6832 34.9877 28.6239 34.8975 28.549 34.8212C28.4741 34.745 28.385 34.6843 28.2866 34.6426C28.1883 34.6009 28.0826 34.5789 27.9757 34.578H23.6436V26.3156H35.9594V27.552C35.9556 27.6603 35.9735 27.7682 36.0123 27.8693C36.0511 27.9705 36.1099 28.0627 36.1851 28.1406C36.2603 28.2186 36.3504 28.2806 36.4501 28.3229C36.5498 28.3653 36.6571 28.3871 36.7654 28.3871C36.8737 28.3871 36.981 28.3653 37.0807 28.3229C37.1804 28.2806 37.2705 28.2186 37.3457 28.1406C37.421 28.0627 37.4797 27.9705 37.5185 27.8693C37.5573 27.7682 37.5755 27.6603 37.5717 27.552V21.2117C37.5736 20.9961 37.4897 20.7886 37.3387 20.6347C37.1876 20.4808 36.9815 20.3932 36.7659 20.3911H22.8359C22.6202 20.3932 22.4144 20.4808 22.2634 20.6347C22.1123 20.7886 22.0284 20.9961 22.0303 21.2117V35.3986C22.0287 35.6144 22.1129 35.8219 22.2641 35.9758C22.4153 36.1296 22.6214 36.2172 22.8371 36.2193H27.9748C28.0817 36.2185 28.1874 36.1966 28.2859 36.155C28.3844 36.1133 28.4737 36.0526 28.5487 35.9764C28.6238 35.9002 28.6829 35.8099 28.723 35.7108C28.7631 35.6116 28.7834 35.5056 28.7825 35.3986ZM35.9603 22.0334V24.6742H23.6446V22.0294L35.9603 22.0334Z" fill="white"/>
<path d="M24.9373 24.1522H25.0374C25.2551 24.1522 25.4637 24.0658 25.6177 23.9118C25.7716 23.7578 25.8582 23.549 25.8582 23.3312C25.8582 23.1135 25.7716 22.9047 25.6177 22.7507C25.4637 22.5968 25.2551 22.5103 25.0374 22.5103H24.9373C24.7195 22.5103 24.5107 22.5968 24.3567 22.7507C24.2027 22.9047 24.1162 23.1135 24.1162 23.3312C24.1162 23.549 24.2027 23.7578 24.3567 23.9118C24.5107 24.0658 24.7195 24.1522 24.9373 24.1522Z" fill="white"/>
<path d="M27.0095 24.1522H27.1096C27.3274 24.1522 27.536 24.0658 27.6899 23.9118C27.8439 23.7578 27.9304 23.549 27.9304 23.3312C27.9304 23.1135 27.8439 22.9047 27.6899 22.7507C27.536 22.5968 27.3274 22.5103 27.1096 22.5103H27.0095C26.7918 22.5103 26.5829 22.5968 26.429 22.7507C26.275 22.9047 26.1885 23.1135 26.1885 23.3312C26.1885 23.549 26.275 23.7578 26.429 23.9118C26.5829 24.0658 26.7918 24.1522 27.0095 24.1522Z" fill="white"/>
<path d="M29.0828 24.1522H29.1826C29.4004 24.1522 29.6092 24.0658 29.7632 23.9118C29.9172 23.7578 30.0037 23.549 30.0037 23.3312C30.0037 23.1135 29.9172 22.9047 29.7632 22.7507C29.6092 22.5968 29.4004 22.5103 29.1826 22.5103H29.0828C28.865 22.5103 28.6562 22.5968 28.5022 22.7507C28.3482 22.9047 28.2617 23.1135 28.2617 23.3312C28.2617 23.549 28.3482 23.7578 28.5022 23.9118C28.6562 24.0658 28.865 24.1522 29.0828 24.1522Z" fill="white"/>
<path d="M34.3888 33.8173C33.9242 33.8091 33.468 33.9394 33.0778 34.1916C32.6876 34.4438 32.3812 34.8064 32.1978 35.2332C32.0144 35.6601 31.9623 36.1319 32.048 36.5885C32.1337 37.0451 32.3534 37.4658 32.679 37.7972C33.0047 38.1285 33.4217 38.3554 33.8768 38.4489C34.3318 38.5425 34.8044 38.4985 35.2343 38.3225C35.6643 38.1465 36.0322 37.8465 36.291 37.4607C36.5499 37.0749 36.6879 36.6208 36.6878 36.1562C36.6876 35.5428 36.4467 34.9541 36.0167 34.5166C35.5867 34.0791 35.0021 33.828 34.3888 33.8173ZM34.3888 37.6686C34.0886 37.6735 33.7939 37.5891 33.542 37.4259C33.29 37.2628 33.0921 37.0284 32.9738 36.7525C32.8555 36.4766 32.8222 36.1718 32.8777 35.8768C32.9332 35.5818 33.075 35.31 33.2855 35.096C33.4959 34.882 33.7655 34.7354 34.0596 34.675C34.3536 34.6146 34.6588 34.6431 34.9366 34.7568C35.2144 34.8705 35.4521 35.0643 35.6194 35.3135C35.7867 35.5627 35.8761 35.856 35.8762 36.1562C35.8762 36.553 35.7203 36.934 35.442 37.2169C35.1638 37.4998 34.7855 37.662 34.3888 37.6686Z" fill="white"/>
<path d="M42.1282 35.3355H39.1715C39.0451 34.5685 38.7403 33.842 38.2817 33.2144L40.5808 31.1743C40.7423 31.0295 40.8408 30.8273 40.8553 30.6109C40.8699 30.3945 40.7995 30.1809 40.6589 30.0158C40.5899 29.9351 40.5055 29.869 40.4107 29.8213C40.3159 29.7736 40.2125 29.7453 40.1066 29.7379C40.0007 29.7306 39.8945 29.7443 39.794 29.7785C39.6935 29.8126 39.6007 29.8665 39.5212 29.9368L37.1223 32.0699C36.5468 31.6708 35.8905 31.4033 35.2 31.2862V28.3155C35.2039 28.2072 35.1859 28.0993 35.1471 27.9982C35.1083 27.8971 35.0495 27.8048 34.9743 27.7268C34.8991 27.6489 34.809 27.5869 34.7093 27.5446C34.6096 27.5023 34.5023 27.4805 34.394 27.4805C34.2857 27.4805 34.1784 27.5023 34.0787 27.5446C33.979 27.5869 33.8889 27.6489 33.8137 27.7268C33.7384 27.8048 33.6797 27.8971 33.6409 27.9982C33.6021 28.0993 33.5839 28.2072 33.5877 28.3155V31.2862C32.9125 31.4006 32.2699 31.659 31.7035 32.0439L29.9145 30.2347C29.8401 30.1591 29.7512 30.0991 29.6534 30.0582C29.5555 30.0172 29.4507 29.9961 29.3447 29.9961C29.2386 29.9961 29.1335 30.0172 29.0357 30.0582C28.9379 30.0991 28.8492 30.1591 28.7748 30.2347C28.6233 30.39 28.5386 30.5984 28.5386 30.8154C28.5386 31.0324 28.6233 31.2408 28.7748 31.3961L30.5282 33.1684C29.9276 33.9712 29.583 34.9366 29.5399 35.9383C29.4967 36.94 29.7568 37.9315 30.2861 38.783L27.9742 40.7392C27.8098 40.8807 27.7073 41.0809 27.6886 41.297C27.67 41.5131 27.7367 41.728 27.8743 41.8957C27.9413 41.978 28.024 42.0462 28.1176 42.0962C28.2113 42.1463 28.3138 42.1772 28.4195 42.1872C28.5252 42.1971 28.632 42.1859 28.7333 42.1542C28.8347 42.1225 28.9286 42.071 29.0098 42.0026L31.3648 40.0105C32.0062 40.5347 32.7725 40.8838 33.5889 41.024V43.7778C33.5851 43.8861 33.6031 43.994 33.6419 44.0951C33.6807 44.1963 33.7394 44.2886 33.8147 44.3665C33.8899 44.4444 33.98 44.5064 34.0797 44.5487C34.1794 44.5911 34.2867 44.6129 34.395 44.6129C34.5033 44.6129 34.6106 44.5911 34.7103 44.5487C34.81 44.5064 34.9001 44.4444 34.9753 44.3665C35.0505 44.2886 35.1093 44.1963 35.1481 44.0951C35.1869 43.994 35.2048 43.8861 35.201 43.7778V41.023C35.8428 40.9124 36.4551 40.6715 37.0003 40.3153L38.9565 41.9976C39.0372 42.0664 39.1309 42.1184 39.232 42.1507C39.3331 42.1829 39.4394 42.1947 39.5451 42.1854C39.6508 42.1761 39.7536 42.1459 39.8475 42.0965C39.9413 42.0471 40.0245 41.9795 40.092 41.8977C40.2297 41.7299 40.2964 41.5148 40.2777 41.2986C40.259 41.0823 40.1564 40.8819 39.9919 40.7401L38.1997 39.2018C38.7023 38.5509 39.0351 37.7853 39.1683 36.9738H42.125C42.3427 36.9738 42.5515 36.8873 42.7054 36.7334C42.8593 36.5795 42.9457 36.3708 42.9457 36.1531C42.9457 35.9355 42.8593 35.7267 42.7054 35.5728C42.5515 35.4189 42.3427 35.3325 42.125 35.3325L42.1282 35.3355ZM34.3894 39.4587C33.7347 39.4698 33.0915 39.2858 32.5418 38.9302C31.992 38.5746 31.5606 38.0634 31.3023 37.4617C31.044 36.86 30.9708 36.1951 31.0917 35.5516C31.2126 34.9081 31.5222 34.3151 31.9812 33.8482C32.4402 33.3813 33.0279 33.0615 33.6692 32.9296C34.3106 32.7977 34.9764 32.8597 35.5824 33.1076C36.1885 33.3556 36.7071 33.7782 37.072 34.3218C37.437 34.8654 37.632 35.5054 37.6321 36.1601C37.6322 37.0254 37.2923 37.856 36.6857 38.473C36.0792 39.09 35.2545 39.444 34.3894 39.4587Z" fill="white"/>
</g>
</g>
</g>
<defs>
<linearGradient id="paint0_linear_438_642" x1="32.5" y1="0.5" x2="32.5" y2="64.5" gradientUnits="userSpaceOnUse">
<stop stop-color="#343338"/>
<stop offset="0.25" stop-color="#302E34"/>
<stop offset="0.5" stop-color="#2B2A2F"/>
<stop offset="0.75" stop-color="#27252B"/>
<stop offset="1" stop-color="#232127"/>
</linearGradient>
<clipPath id="clip0_438_642">
<rect width="20.92" height="24.22" fill="white" transform="translate(22.0303 20.3901)"/>
</clipPath>
<clipPath id="clip1_438_642">
<rect width="20.92" height="24.22" fill="white" transform="translate(22.0303 20.3901)"/>
</clipPath>
<clipPath id="clip2_438_642">
<rect width="20.92" height="24.2176" fill="white" transform="translate(22.0303 20.3911)"/>
</clipPath>
</defs>
</svg>
