<svg width="65" height="65" viewBox="0 0 65 65" fill="none" xmlns="http://www.w3.org/2000/svg">
<rect x="0.5" y="0.5" width="64" height="64" rx="10" fill="url(#paint0_linear_438_749)"/>
<g clip-path="url(#clip0_438_749)">
<g clip-path="url(#clip1_438_749)">
<g clip-path="url(#clip2_438_749)">
<path d="M37.1822 40.5386H27.818C27.5697 40.5386 27.3316 40.6372 27.156 40.8128C26.9805 40.9883 26.8818 41.2264 26.8818 41.4747C26.8818 41.723 26.9805 41.9611 27.156 42.1367C27.3316 42.3122 27.5697 42.4108 27.818 42.4108H37.1822C37.4305 42.4108 37.6686 42.3122 37.8441 42.1367C38.0197 41.9611 38.1183 41.723 38.1183 41.4747C38.1183 41.2264 38.0197 40.9883 37.8441 40.8128C37.6686 40.6372 37.4305 40.5386 37.1822 40.5386Z" fill="white"/>
<path d="M33.43 30.995C35.1995 31.0595 36.9285 30.4557 38.2731 29.3036C40.3522 27.2245 39.9434 23.6059 39.9254 23.452C39.9001 23.2438 39.8057 23.05 39.6573 22.9018C39.5088 22.7536 39.315 22.6594 39.1067 22.6343C38.5879 22.4864 33.8988 22.4184 32.4944 25.3012C31.102 22.4214 26.3749 22.4844 25.8831 22.6343C25.675 22.6592 25.4813 22.7532 25.3331 22.9013C25.1848 23.0494 25.0905 23.243 25.0654 23.451C25.0464 23.6039 24.6365 27.2235 26.7177 29.3046C28.0618 30.4576 29.7911 31.0615 31.5608 30.996L33.43 30.995ZM34.5786 25.6081C35.5705 24.8077 36.822 24.3997 38.0951 24.4616C38.1281 27.5324 36.4898 29.1597 33.431 29.1237C33.3707 27.8508 33.7793 26.5999 34.5796 25.6081H34.5786ZM28.0382 27.9782C27.2388 26.9868 26.8312 25.7366 26.8926 24.4646C29.9744 24.4356 31.5908 26.0689 31.5558 29.1237C30.2826 29.184 29.0313 28.7772 28.0382 27.9782Z" fill="white"/>
<path d="M31.5576 27.1625V36.5277C31.5576 36.776 31.6562 37.0141 31.8318 37.1897C32.0074 37.3652 32.2455 37.4639 32.4937 37.4639C32.742 37.4639 32.9801 37.3652 33.1557 37.1897C33.3312 37.0141 33.4299 36.776 33.4299 36.5277V27.1625C33.4299 26.9142 33.3312 26.6761 33.1557 26.5006C32.9801 26.325 32.742 26.2264 32.4937 26.2264C32.2455 26.2264 32.0074 26.325 31.8318 26.5006C31.6562 26.6761 31.5576 26.9142 31.5576 27.1625Z" fill="white"/>
</g>
</g>
</g>
<defs>
<linearGradient id="paint0_linear_438_749" x1="32.5" y1="0.5" x2="32.5" y2="64.5" gradientUnits="userSpaceOnUse">
<stop stop-color="#343338"/>
<stop offset="0.25" stop-color="#302E34"/>
<stop offset="0.5" stop-color="#2B2A2F"/>
<stop offset="0.75" stop-color="#27252B"/>
<stop offset="1" stop-color="#232127"/>
</linearGradient>
<clipPath id="clip0_438_749">
<rect width="14.95" height="19.83" fill="white" transform="translate(25.0195 22.5801)"/>
</clipPath>
<clipPath id="clip1_438_749">
<rect width="14.95" height="19.83" fill="white" transform="translate(25.0195 22.5801)"/>
</clipPath>
<clipPath id="clip2_438_749">
<rect width="14.95" height="19.829" fill="white" transform="translate(25.0195 22.5806)"/>
</clipPath>
</defs>
</svg>
