<svg width="65" height="65" viewBox="0 0 65 65" fill="none" xmlns="http://www.w3.org/2000/svg">
<rect x="0.5" y="0.5" width="64" height="64" rx="10" fill="url(#paint0_linear_438_758)"/>
<g clip-path="url(#clip0_438_758)">
<g clip-path="url(#clip1_438_758)">
<g clip-path="url(#clip2_438_758)">
<path d="M37.8803 42.3329H38.9185C38.9812 42.3335 39.0435 42.3217 39.1017 42.2982C39.1598 42.2746 39.2127 42.2398 39.2573 42.1956C39.3019 42.1515 39.3373 42.0989 39.3615 42.041C39.3857 41.9831 39.3981 41.921 39.3981 41.8582V30.252L39.6519 30.4909C39.7312 30.5661 39.8249 30.6244 39.9276 30.662C40.0302 30.6996 40.1394 30.7157 40.2485 30.7094C40.3576 30.7032 40.4642 30.6746 40.5619 30.6255C40.6595 30.5764 40.746 30.5078 40.816 30.4239C40.9628 30.252 41.038 30.0303 41.0261 29.8046C41.0142 29.5789 40.9161 29.3664 40.7521 29.2108L33.3177 22.2631C33.1064 22.0622 32.8259 21.9502 32.5343 21.9502C32.2427 21.9502 31.9623 22.0622 31.7509 22.2631L24.2506 29.2108C24.0859 29.3657 23.9869 29.5779 23.9741 29.8036C23.9612 30.0293 24.0355 30.2514 24.1817 30.4239C24.2514 30.5081 24.3376 30.5771 24.435 30.6267C24.5325 30.6762 24.639 30.7053 24.7482 30.712C24.8573 30.7188 24.9666 30.7031 25.0694 30.6659C25.1722 30.6287 25.2662 30.5708 25.3458 30.4959L25.4457 30.4029V42.0941L25.4527 42.2799L25.4637 42.5997C25.465 42.7156 25.5114 42.8265 25.5931 42.9088C25.6748 42.9911 25.7854 43.0383 25.9014 43.0403H38.9605C39.0191 43.0392 39.077 43.0265 39.1307 43.0029C39.1845 42.9794 39.233 42.9455 39.2737 42.9032C39.3143 42.8609 39.3462 42.811 39.3676 42.7563C39.3889 42.7017 39.3993 42.6433 39.3981 42.5847V41.1378C39.3979 41.0121 39.3477 40.8916 39.2587 40.8028C39.1698 40.714 39.0492 40.6641 38.9235 40.6641H37.9862C37.7244 40.6641 37.7504 40.877 37.7504 41.1388H27.3293V28.948L32.5423 24.3265L37.5595 28.7872V41.8652C37.5605 42.12 37.6215 42.3299 37.8803 42.3329Z" fill="white"/>
<path d="M32.1518 33.1041H33.7436C33.8348 33.1102 33.9263 33.0976 34.0124 33.0669C34.0985 33.0362 34.1774 32.9881 34.2442 32.9257C34.3109 32.8632 34.3641 32.7878 34.4005 32.7039C34.4369 32.62 34.4558 32.5295 34.4558 32.4381C34.4558 32.3467 34.4369 32.2562 34.4005 32.1724C34.3641 32.0885 34.3109 32.0131 34.2442 31.9506C34.1774 31.8882 34.0985 31.8401 34.0124 31.8094C33.9263 31.7787 33.8348 31.766 33.7436 31.7722H33.4747V30.8059C33.4634 30.637 33.3883 30.4787 33.2647 30.363C33.141 30.2474 32.978 30.1831 32.8087 30.1831C32.6394 30.1831 32.4765 30.2474 32.3529 30.363C32.2292 30.4787 32.1541 30.637 32.1427 30.8059V31.7691C31.2734 31.7691 30.62 32.2748 30.62 32.9413V34.2763C30.62 34.9437 31.2784 35.4483 32.1518 35.4483H32.8773C32.9448 35.4477 33.0121 35.4568 33.0771 35.4754V36.3197C33.012 36.3378 32.9448 36.3465 32.8773 36.3457H31.2855C31.1943 36.3395 31.1027 36.3522 31.0166 36.3829C30.9305 36.4136 30.8516 36.4617 30.7849 36.5241C30.7181 36.5866 30.6648 36.6621 30.6284 36.7459C30.592 36.8298 30.5732 36.9202 30.5732 37.0117C30.5732 37.1031 30.592 37.1935 30.6284 37.2774C30.6648 37.3613 30.7181 37.4368 30.7849 37.4992C30.8516 37.5617 30.9305 37.6097 31.0166 37.6404C31.1027 37.6711 31.1943 37.6838 31.2855 37.6777H32.1427V38.7489C32.1541 38.9178 32.2292 39.076 32.3529 39.1917C32.4765 39.3073 32.6394 39.3716 32.8087 39.3716C32.978 39.3716 33.141 39.3073 33.2647 39.1917C33.3883 39.076 33.4634 38.9178 33.4747 38.7489V37.5908C33.7276 37.5367 33.9558 37.4013 34.1245 37.2054C34.2932 37.0094 34.3932 36.7637 34.4091 36.5056V35.2874C34.4091 34.62 33.7506 34.1154 32.8773 34.1154H32.1518C32.0842 34.1162 32.017 34.1074 31.952 34.0894V33.1281C32.0171 33.1108 32.0843 33.1027 32.1518 33.1041Z" fill="white"/>
</g>
</g>
</g>
<defs>
<linearGradient id="paint0_linear_438_758" x1="32.5" y1="0.5" x2="32.5" y2="64.5" gradientUnits="userSpaceOnUse">
<stop stop-color="#343338"/>
<stop offset="0.25" stop-color="#302E34"/>
<stop offset="0.5" stop-color="#2B2A2F"/>
<stop offset="0.75" stop-color="#27252B"/>
<stop offset="1" stop-color="#232127"/>
</linearGradient>
<clipPath id="clip0_438_758">
<rect width="17.06" height="21.09" fill="white" transform="translate(23.9697 21.9502)"/>
</clipPath>
<clipPath id="clip1_438_758">
<rect width="17.06" height="21.09" fill="white" transform="translate(23.9697 21.9502)"/>
</clipPath>
<clipPath id="clip2_438_758">
<rect width="17.0551" height="21.09" fill="white" transform="translate(23.9727 21.9502)"/>
</clipPath>
</defs>
</svg>
