<svg width="64" height="65" viewBox="0 0 64 65" fill="none" xmlns="http://www.w3.org/2000/svg">
<rect y="0.5" width="64" height="64" rx="10" fill="url(#paint0_linear_438_766)"/>
<g clip-path="url(#clip0_438_766)">
<g clip-path="url(#clip1_438_766)">
<g clip-path="url(#clip2_438_766)">
<path d="M22.1162 22.4399V38.4937L31.9557 42.5669L41.8752 38.4957V22.4459L31.9587 26.5151L22.1162 22.4399ZM39.8251 25.5021V37.1247L32.9827 39.9348V28.3112L39.8251 25.5021ZM24.1653 25.5021L30.9316 28.3022V39.9228L24.1653 37.1227V25.5021Z" fill="white"/>
<path d="M29.4948 31.5584C29.4004 31.5586 29.3067 31.5423 29.2178 31.5104L25.1568 30.0564C25.0554 30.0201 24.9622 29.9642 24.8824 29.8918C24.8026 29.8195 24.7379 29.7321 24.6919 29.6347C24.6459 29.5374 24.6195 29.4319 24.6143 29.3244C24.609 29.2168 24.625 29.1093 24.6613 29.0079C24.6976 28.9065 24.7535 28.8133 24.8259 28.7335C24.8982 28.6537 24.9856 28.589 25.0829 28.543C25.1803 28.497 25.2858 28.4706 25.3933 28.4653C25.5009 28.4601 25.6084 28.4761 25.7098 28.5124L29.7718 29.9674C29.9537 30.0325 30.1068 30.1598 30.204 30.3267C30.3012 30.4937 30.3364 30.6896 30.3032 30.8799C30.2701 31.0703 30.1709 31.2428 30.0229 31.3671C29.875 31.4914 29.688 31.5595 29.4948 31.5594V31.5584Z" fill="white"/>
<path d="M29.4948 34.2342C29.4004 34.2343 29.3067 34.2181 29.2178 34.1862L25.1568 32.7321C25.0554 32.6958 24.9622 32.6399 24.8824 32.5676C24.8026 32.4952 24.7379 32.4079 24.6919 32.3105C24.6459 32.2132 24.6195 32.1077 24.6143 32.0001C24.609 31.8926 24.625 31.785 24.6613 31.6837C24.6976 31.5823 24.7535 31.489 24.8259 31.4093C24.8982 31.3295 24.9856 31.2648 25.0829 31.2187C25.1803 31.1727 25.2858 31.1464 25.3933 31.1411C25.5009 31.1359 25.6084 31.1518 25.7098 31.1882L29.7718 32.6432C29.9537 32.7083 30.1068 32.8355 30.204 33.0025C30.3012 33.1695 30.3364 33.3654 30.3032 33.5557C30.2701 33.7461 30.1709 33.9186 30.0229 34.0429C29.875 34.1672 29.688 34.2343 29.4948 34.2342Z" fill="white"/>
<path d="M29.4948 36.9144C29.4002 36.9136 29.3065 36.8963 29.2178 36.8634L25.1568 35.4094C25.0554 35.3731 24.9622 35.3172 24.8824 35.2448C24.8026 35.1725 24.7379 35.0851 24.6919 34.9878C24.6459 34.8904 24.6195 34.7849 24.6143 34.6774C24.609 34.5698 24.625 34.4623 24.6613 34.3609C24.6976 34.2595 24.7535 34.1663 24.8259 34.0865C24.8982 34.0067 24.9856 33.942 25.0829 33.896C25.1803 33.85 25.2858 33.8236 25.3933 33.8184C25.5009 33.8131 25.6084 33.8291 25.7098 33.8654L29.7718 35.3194C29.9532 35.3851 30.1058 35.5125 30.2026 35.6794C30.2994 35.8463 30.3343 36.042 30.3013 36.2321C30.2682 36.4221 30.1693 36.5945 30.0218 36.7189C29.8743 36.8434 29.6878 36.9119 29.4948 36.9124V36.9144Z" fill="white"/>
<path d="M34.4954 31.5584C34.3022 31.5585 34.1151 31.4904 33.9672 31.3661C33.8193 31.2418 33.7201 31.0693 33.6869 30.879C33.6538 30.6886 33.689 30.4927 33.7862 30.3257C33.8834 30.1588 34.0365 30.0315 34.2184 29.9664L38.2804 28.5124C38.3818 28.4761 38.4893 28.4601 38.5969 28.4653C38.7044 28.4706 38.8099 28.497 38.9072 28.543C39.0046 28.589 39.092 28.6537 39.1643 28.7335C39.2366 28.8133 39.2926 28.9065 39.3289 29.0079C39.3652 29.1093 39.3812 29.2168 39.3759 29.3244C39.3707 29.4319 39.3443 29.5374 39.2983 29.6347C39.2523 29.7321 39.1875 29.8195 39.1078 29.8918C39.028 29.9642 38.9347 30.0201 38.8334 30.0564L34.7724 31.5104C34.6835 31.5423 34.5898 31.5586 34.4954 31.5584Z" fill="white"/>
<path d="M34.4954 34.2347C34.3022 34.2348 34.1151 34.1667 33.9672 34.0424C33.8193 33.9181 33.7201 33.7456 33.6869 33.5552C33.6538 33.3649 33.689 33.1689 33.7862 33.002C33.8834 32.835 34.0365 32.7078 34.2184 32.6426L38.2804 31.1886C38.4851 31.1153 38.7106 31.1263 38.9072 31.2192C39.1039 31.3122 39.2555 31.4794 39.3289 31.6841C39.4022 31.8889 39.3912 32.1144 39.2983 32.311C39.2053 32.5077 39.0381 32.6593 38.8334 32.7326L34.7724 34.1867C34.6835 34.2186 34.5898 34.2348 34.4954 34.2347Z" fill="white"/>
<path d="M34.4954 36.9158C34.3024 36.9153 34.1159 36.8468 33.9684 36.7224C33.8209 36.598 33.722 36.4256 33.6889 36.2355C33.6558 36.0454 33.6908 35.8497 33.7876 35.6828C33.8844 35.5159 34.0369 35.3885 34.2184 35.3228L38.2804 33.8688C38.3818 33.8325 38.4893 33.8165 38.5969 33.8218C38.7044 33.827 38.8099 33.8534 38.9072 33.8994C39.0046 33.9454 39.092 34.0102 39.1643 34.0899C39.2366 34.1697 39.2926 34.263 39.3289 34.3643C39.3652 34.4657 39.3812 34.5732 39.3759 34.6808C39.3707 34.7884 39.3443 34.8938 39.2983 34.9912C39.2523 35.0886 39.1875 35.1759 39.1078 35.2482C39.028 35.3206 38.9348 35.3765 38.8334 35.4128L34.7724 36.8668C34.6836 36.8991 34.5899 36.9157 34.4954 36.9158Z" fill="white"/>
</g>
</g>
</g>
<defs>
<linearGradient id="paint0_linear_438_766" x1="32" y1="0.5" x2="32" y2="64.5" gradientUnits="userSpaceOnUse">
<stop stop-color="#343338"/>
<stop offset="0.25" stop-color="#302E34"/>
<stop offset="0.5" stop-color="#2B2A2F"/>
<stop offset="0.75" stop-color="#27252B"/>
<stop offset="1" stop-color="#232127"/>
</linearGradient>
<clipPath id="clip0_438_766">
<rect width="19.77" height="20.13" fill="white" transform="translate(22.1104 22.4399)"/>
</clipPath>
<clipPath id="clip1_438_766">
<rect width="19.77" height="20.13" fill="white" transform="translate(22.1104 22.4399)"/>
</clipPath>
<clipPath id="clip2_438_766">
<rect width="19.759" height="20.13" fill="white" transform="translate(22.1162 22.4399)"/>
</clipPath>
</defs>
</svg>
