<svg width="65" height="65" viewBox="0 0 65 65" fill="none" xmlns="http://www.w3.org/2000/svg">
<rect x="0.5" y="0.5" width="64" height="64" rx="10" fill="url(#paint0_linear_436_365)"/>
<g clip-path="url(#clip0_436_365)">
<g clip-path="url(#clip1_436_365)">
<g clip-path="url(#clip2_436_365)">
<path d="M38.933 38.6345C38.1056 39.5082 37.108 40.2032 36.0018 40.6767C34.8955 41.1502 33.7039 41.3921 32.5006 41.3875C30.4756 41.3848 28.5122 40.6922 26.9337 39.4239C25.3551 38.1556 24.2556 36.3873 23.8167 34.4104L25.6155 35.7445C25.7088 35.8179 25.8159 35.8718 25.9305 35.903C26.045 35.9343 26.1646 35.9422 26.2823 35.9264C26.3999 35.9106 26.5133 35.8713 26.6155 35.811C26.7177 35.7506 26.8067 35.6703 26.8773 35.5749C26.9479 35.4794 26.9987 35.3708 27.0266 35.2554C27.0545 35.14 27.0588 35.0202 27.0396 34.903C27.0203 34.7859 26.9778 34.6738 26.9144 34.5734C26.851 34.473 26.7681 34.3863 26.6707 34.3185L23.2451 31.7833C23.1131 31.6857 22.9568 31.6266 22.7933 31.6126C22.6297 31.5986 22.4656 31.6302 22.319 31.704C22.1724 31.7777 22.0491 31.8906 21.9628 32.0302C21.8765 32.1698 21.8304 32.3307 21.8301 32.4948C21.8293 34.6265 22.4674 36.7095 23.6618 38.4752C24.8562 40.2409 26.5523 41.6081 28.5312 42.4007C30.5101 43.1932 32.6809 43.3747 34.7639 42.9216C36.8468 42.4684 38.7464 41.4015 40.2173 39.8586C40.3799 39.6884 40.4681 39.4607 40.4627 39.2254C40.4574 38.9901 40.3589 38.7666 40.1887 38.604C40.0186 38.4414 39.7909 38.3531 39.5557 38.3584C39.3204 38.3638 39.0969 38.4623 38.9343 38.6325L38.933 38.6345Z" fill="white"/>
<path d="M32.4995 21.8301C29.7724 21.8256 27.148 22.87 25.1697 24.747C25.0819 24.8263 25.0107 24.9223 24.9606 25.0294C24.9105 25.1365 24.8823 25.2525 24.8776 25.3707C24.873 25.4889 24.892 25.6067 24.9335 25.7174C24.9751 25.8281 25.0384 25.9295 25.1197 26.0154C25.2009 26.1013 25.2986 26.1701 25.4068 26.2178C25.515 26.2654 25.6316 26.291 25.7498 26.2929C25.8681 26.2948 25.9856 26.2731 26.0953 26.229C26.205 26.1849 26.3048 26.1193 26.3888 26.0361C27.5413 24.9469 28.964 24.1857 30.5097 23.8312C32.0553 23.4768 33.6678 23.5421 35.1797 24.0203C36.6917 24.4986 38.0482 25.3723 39.1088 26.5511C40.1695 27.73 40.8958 29.171 41.2123 30.7248L38.9469 29.2259C38.751 29.1047 38.5158 29.0644 38.2908 29.1135C38.0658 29.1627 37.8687 29.2973 37.7412 29.4891C37.6136 29.6808 37.5658 29.9146 37.6075 30.1411C37.6492 30.3676 37.7772 30.5691 37.9646 30.7028L41.7849 33.2381C41.9186 33.3268 42.0738 33.3776 42.2341 33.3851C42.3944 33.3926 42.5538 33.3565 42.6952 33.2806C42.8366 33.2047 42.9549 33.0919 43.0372 32.9542C43.1196 32.8165 43.1629 32.659 43.1629 32.4986C43.1602 29.6708 42.0362 26.9595 40.0371 24.9595C38.0381 22.9595 35.3273 21.8341 32.4995 21.8301Z" fill="white"/>
<path d="M32.7733 34.858H30.6539C30.4186 34.858 30.1928 34.9515 30.0264 35.1179C29.86 35.2843 29.7666 35.51 29.7666 35.7454C29.7666 35.9807 29.86 36.2065 30.0264 36.3729C30.1928 36.5393 30.4186 36.6328 30.6539 36.6328H31.7962V38.0597C31.7962 38.2951 31.8896 38.5208 32.056 38.6872C32.2224 38.8536 32.4481 38.9471 32.6835 38.9471C32.9188 38.9471 33.1446 38.8536 33.311 38.6872C33.4774 38.5208 33.5708 38.2951 33.5708 38.0597V36.5168C33.9077 36.4448 34.2117 36.2644 34.4364 36.0033C34.6611 35.7422 34.7941 35.4147 34.8151 35.0709V33.449C34.8151 32.5587 33.9395 31.8871 32.7733 31.8871H31.8072C31.717 31.8881 31.6271 31.8764 31.5403 31.8521V30.5711C31.627 30.5464 31.717 30.5343 31.8072 30.5351H33.9265C34.043 30.5351 34.1585 30.5121 34.2661 30.4675C34.3738 30.4229 34.4716 30.3575 34.554 30.2751C34.6364 30.1927 34.7019 30.0949 34.7465 29.9872C34.7911 29.8796 34.8141 29.7642 34.8141 29.6477C34.8141 29.5312 34.7911 29.4157 34.7465 29.3081C34.7019 29.2004 34.6364 29.1026 34.554 29.0202C34.4716 28.9378 34.3738 28.8724 34.2661 28.8278C34.1585 28.7832 34.043 28.7603 33.9265 28.7603H33.5698V27.4772C33.5698 27.3607 33.5468 27.2453 33.5023 27.1376C33.4577 27.03 33.3924 26.9321 33.31 26.8497C33.2276 26.7673 33.1298 26.702 33.0221 26.6574C32.9145 26.6128 32.7991 26.5898 32.6825 26.5898C32.566 26.5898 32.4506 26.6128 32.3429 26.6574C32.2353 26.702 32.1374 26.7673 32.055 26.8497C31.9726 26.9321 31.9071 27.03 31.8625 27.1376C31.8179 27.2453 31.795 27.3607 31.795 27.4772V28.7603C30.6368 28.7603 29.7656 29.4339 29.7656 30.3212V32.099C29.7656 32.9893 30.641 33.6609 31.8062 33.6609H32.7723C32.8624 33.6598 32.9524 33.6716 33.0392 33.6958V34.82C32.9528 34.8452 32.8632 34.858 32.7733 34.858Z" fill="white"/>
</g>
</g>
</g>
<defs>
<linearGradient id="paint0_linear_436_365" x1="32.5" y1="0.5" x2="32.5" y2="64.5" gradientUnits="userSpaceOnUse">
<stop stop-color="#343338"/>
<stop offset="0.25" stop-color="#302E34"/>
<stop offset="0.5" stop-color="#2B2A2F"/>
<stop offset="0.75" stop-color="#27252B"/>
<stop offset="1" stop-color="#232127"/>
</linearGradient>
<clipPath id="clip0_436_365">
<rect width="21.34" height="21.33" fill="white" transform="translate(21.8301 21.8301)"/>
</clipPath>
<clipPath id="clip1_436_365">
<rect width="21.34" height="21.33" fill="white" transform="translate(21.8301 21.8301)"/>
</clipPath>
<clipPath id="clip2_436_365">
<rect width="21.331" height="21.33" fill="white" transform="translate(21.834 21.8301)"/>
</clipPath>
</defs>
</svg>
