<svg width="65" height="65" viewBox="0 0 65 65" fill="none" xmlns="http://www.w3.org/2000/svg">
<rect x="0.5" y="0.5" width="64" height="64" rx="10" fill="url(#paint0_linear_438_681)"/>
<g clip-path="url(#clip0_438_681)">
<g clip-path="url(#clip1_438_681)">
<g clip-path="url(#clip2_438_681)">
<path d="M27.0848 42.4704C26.612 42.4788 26.1422 42.3939 25.7021 42.2206C25.262 42.0473 24.8604 41.7891 24.5202 41.4606C24.1799 41.1321 23.9076 40.7399 23.7189 40.3062C23.5302 39.8725 23.4288 39.4059 23.4205 38.933C23.4121 38.4601 23.4971 37.9902 23.6703 37.5502C23.8436 37.1101 24.1019 36.7085 24.4304 36.3682C24.7589 36.0279 25.151 35.7557 25.5847 35.567C26.0184 35.3784 26.4851 35.277 26.958 35.2687H27.0848C27.3105 35.2763 27.5243 35.3713 27.6812 35.5336C27.8381 35.696 27.9259 35.9129 27.9259 36.1386C27.9259 36.3644 27.8381 36.5813 27.6812 36.7437C27.5243 36.906 27.3105 37.001 27.0848 37.0086C26.717 37.0086 26.3574 37.1177 26.0515 37.3221C25.7456 37.5265 25.5074 37.8169 25.3666 38.1568C25.2258 38.4966 25.1889 38.8706 25.2607 39.2314C25.3325 39.5922 25.5096 39.9236 25.7697 40.1837C26.0298 40.4438 26.3612 40.621 26.722 40.6927C27.0828 40.7645 27.4567 40.7276 27.7966 40.5869C28.1364 40.4461 28.4269 40.2077 28.6313 39.9019C28.8357 39.596 28.9448 39.2364 28.9448 38.8685V27.0405C28.9438 26.8582 29.0003 26.6803 29.1064 26.532C29.2124 26.3838 29.3627 26.2728 29.5355 26.215L40.4539 22.5721C40.5848 22.5282 40.7244 22.516 40.8609 22.5366C40.9974 22.5573 41.1269 22.6101 41.2389 22.6908C41.3509 22.7714 41.4422 22.8776 41.5051 23.0005C41.5679 23.1235 41.6007 23.2596 41.6005 23.3976V35.2277C41.6005 35.939 41.3895 36.6344 40.9944 37.2259C40.5993 37.8175 40.0377 38.2786 39.3806 38.5511C38.7235 38.8236 38.0005 38.8952 37.3027 38.7569C36.605 38.6185 35.9639 38.2765 35.4605 37.7739C34.9571 37.2713 34.614 36.6308 34.4745 35.9333C34.335 35.2357 34.4054 34.5125 34.6768 33.855C34.9482 33.1974 35.4084 32.6351 35.9993 32.2391C36.5902 31.843 37.2851 31.631 37.9964 31.6298H38.0045C38.121 31.6219 38.2379 31.6375 38.3482 31.6757C38.4586 31.7139 38.5602 31.7739 38.6469 31.8521C38.7336 31.9303 38.804 32.0252 38.8533 32.131C38.9027 32.2369 38.9302 32.3516 38.9343 32.4683C38.9385 32.585 38.9192 32.7014 38.8775 32.8105C38.8358 32.9196 38.7725 33.0192 38.6915 33.1034C38.6106 33.1875 38.5135 33.2546 38.4061 33.3005C38.2987 33.3465 38.1832 33.3704 38.0664 33.3708H38.0045C37.6366 33.3708 37.277 33.4798 36.9711 33.6842C36.6653 33.8886 36.427 34.1791 36.2862 34.5189C36.1454 34.8588 36.1086 35.2327 36.1803 35.5935C36.2521 35.9543 36.4292 36.2857 36.6893 36.5458C36.9494 36.8059 37.2808 36.9831 37.6416 37.0548C38.0024 37.1266 38.3763 37.0898 38.7162 36.949C39.056 36.8082 39.3465 36.5698 39.5509 36.264C39.7553 35.9581 39.8644 35.5985 39.8644 35.2307V24.6099L30.6838 27.6671V38.8685C30.6833 39.8231 30.304 40.7385 29.6292 41.4138C28.9545 42.0891 28.0394 42.4691 27.0848 42.4704Z" fill="white" stroke="white" stroke-width="0.499707" stroke-miterlimit="10"/>
</g>
</g>
</g>
<defs>
<linearGradient id="paint0_linear_438_681" x1="32.5" y1="0.5" x2="32.5" y2="64.5" gradientUnits="userSpaceOnUse">
<stop stop-color="#343338"/>
<stop offset="0.25" stop-color="#302E34"/>
<stop offset="0.5" stop-color="#2B2A2F"/>
<stop offset="0.75" stop-color="#27252B"/>
<stop offset="1" stop-color="#232127"/>
</linearGradient>
<clipPath id="clip0_438_681">
<rect width="18.69" height="20.45" fill="white" transform="translate(23.1602 22.27)"/>
</clipPath>
<clipPath id="clip1_438_681">
<rect width="18.69" height="20.45" fill="white" transform="translate(23.1602 22.27)"/>
</clipPath>
<clipPath id="clip2_438_681">
<rect width="18.682" height="20.45" fill="white" transform="translate(23.1641 22.27)"/>
</clipPath>
</defs>
</svg>
