<svg width="64" height="65" viewBox="0 0 64 65" fill="none" xmlns="http://www.w3.org/2000/svg">
<rect y="0.5" width="64" height="64" rx="10" fill="url(#paint0_linear_438_653)"/>
<g clip-path="url(#clip0_438_653)">
<g clip-path="url(#clip1_438_653)">
<g clip-path="url(#clip2_438_653)">
<path d="M30.8166 24.9923C28.9321 24.9947 27.1189 25.7127 25.7437 27.0011C24.3684 28.2894 23.5338 30.052 23.4085 31.9322C23.4074 31.9432 23.4074 31.9543 23.4085 31.9653C23.3985 32.1143 23.3945 32.2653 23.3945 32.4173C23.3964 33.5884 23.675 34.7425 24.2077 35.7855C24.7403 36.8284 25.5119 37.7308 26.4594 38.4189C27.407 39.1071 28.5038 39.5616 29.6604 39.7453C30.817 39.9291 32.0007 39.8369 33.1149 39.4763C33.2054 39.4506 33.2899 39.407 33.3632 39.3479C33.4365 39.2889 33.4971 39.2157 33.5415 39.1327C33.5858 39.0497 33.613 38.9586 33.6213 38.8648C33.6297 38.7711 33.619 38.6766 33.59 38.5871C33.561 38.4975 33.5143 38.4147 33.4526 38.3437C33.3909 38.2726 33.3155 38.2147 33.2309 38.1735C33.1463 38.1322 33.0542 38.1085 32.9602 38.1036C32.8663 38.0987 32.7722 38.1128 32.6838 38.1451C31.4316 38.5511 30.0811 38.5374 28.8373 38.1061L28.8583 38.0871C28.5504 37.4477 28.3574 36.7591 28.2882 36.0528C27.86 34.6731 26.9827 33.4761 25.7959 32.6524C25.8514 32.6682 25.9041 32.6928 25.9519 32.7254C25.5641 32.3416 25.1969 31.9377 24.8517 31.5152C25.051 30.1816 25.6949 28.9545 26.679 28.0327C27.1081 28.4799 27.4329 29.0164 27.6301 29.6039C27.7013 29.9638 27.7398 30.3293 27.7451 30.6961C27.7421 30.926 27.7673 31.1554 27.8202 31.3792C28.0195 31.9643 28.3182 32.5108 28.7033 32.9944C29.024 33.3054 29.4472 33.4889 29.8934 33.5105C30.0395 33.5125 30.1843 33.4824 30.3175 33.4225C30.5967 33.2437 30.836 33.0093 31.0206 32.734C31.2053 32.4587 31.3312 32.1483 31.3907 31.8222C31.8222 31.1411 32.5051 30.6577 33.2909 30.477C34.3032 30.3556 35.3058 30.1638 36.2913 29.903C36.5732 30.5242 36.7477 31.1887 36.8074 31.8682C36.8207 32.0539 36.9072 32.2267 37.0478 32.3486C37.1175 32.409 37.1983 32.4551 37.2858 32.4842C37.3733 32.5133 37.4656 32.5249 37.5575 32.5183C37.6495 32.5118 37.7392 32.4872 37.8216 32.4459C37.9041 32.4047 37.9776 32.3476 38.0379 32.2779C38.0983 32.2083 38.1443 32.1274 38.1735 32.0399C38.2026 31.9525 38.2142 31.8602 38.2076 31.7682C38.2076 31.7592 38.2076 31.7502 38.2076 31.7412C38.0484 29.8936 37.1997 28.1736 35.8302 26.9232C34.4608 25.6727 32.671 24.9834 30.8166 24.9923ZM25.3058 33.9665C26.0175 34.6109 26.5683 35.4132 26.914 36.3089C26.97 36.6089 27.021 36.8829 27.073 37.131C25.9798 36.2652 25.2211 35.0466 24.9267 33.6835C25.0375 33.7972 25.1654 33.8927 25.3058 33.9665ZM33.1809 29.0848C32.4867 29.1928 31.8318 29.4769 31.2785 29.9098C30.7253 30.3428 30.2921 30.9103 30.0205 31.5582C29.9806 31.7431 29.9011 31.9171 29.7874 32.0683C29.7614 32.0543 29.7384 32.0423 29.7204 32.0313C29.4991 31.7243 29.3173 31.3906 29.1793 31.0381C29.1539 30.9172 29.1428 30.7936 29.1463 30.6701C29.1416 30.227 29.0957 29.7854 29.0093 29.3509C28.7848 28.5485 28.3735 27.8106 27.8092 27.1976C29.0589 26.4775 30.5251 26.2286 31.9424 26.4959C33.3598 26.7632 34.6346 27.529 35.5362 28.6548C34.762 28.8496 33.9759 28.9935 33.1829 29.0858L33.1809 29.0848Z" fill="white"/>
<path d="M23.4086 31.9312C23.4075 31.9421 23.4075 31.9532 23.4086 31.9642C23.4025 31.9585 23.3971 31.9521 23.3926 31.9452L23.4086 31.9312Z" fill="white"/>
<path d="M30.8161 36.4624C30.6871 36.4623 30.5607 36.4266 30.4508 36.3592C30.3408 36.2918 30.2517 36.1953 30.1931 36.0804L29.7561 35.2274C29.6816 35.0635 29.6731 34.8772 29.7324 34.7072C29.7917 34.5372 29.9142 34.3966 30.0745 34.3146C30.2348 34.2326 30.4205 34.2155 30.5931 34.2669C30.7656 34.3182 30.9117 34.4341 31.0011 34.5904L31.4381 35.4434C31.4925 35.55 31.5186 35.6688 31.514 35.7883C31.5094 35.9079 31.4742 36.0243 31.4118 36.1264C31.3494 36.2285 31.2619 36.3129 31.1576 36.3716C31.0533 36.4302 30.9357 36.4611 30.8161 36.4614V36.4624Z" fill="white"/>
<path d="M29.7521 22.9368H29.8011C30.0681 22.9128 30.3601 22.8878 30.6271 22.8878H30.7001C30.8386 22.8783 30.9689 22.8189 31.0671 22.7208C31.1652 22.6226 31.2245 22.4923 31.2341 22.3538C31.2328 22.2126 31.1761 22.0775 31.0763 21.9777C30.9764 21.8778 30.8413 21.8211 30.7001 21.8198H30.6001C30.291 21.821 29.9825 21.8454 29.6771 21.8928C29.6074 21.8982 29.5395 21.9179 29.4778 21.9508C29.416 21.9836 29.3618 22.0289 29.3184 22.0838C29.275 22.1386 29.2434 22.2019 29.2256 22.2695C29.2079 22.3371 29.2043 22.4077 29.2151 22.4768C29.2319 22.6063 29.296 22.725 29.3952 22.81C29.4944 22.8949 29.6216 22.9401 29.7521 22.9368Z" fill="white"/>
<path d="M23.7757 25.7553C23.9111 25.7545 24.0412 25.7023 24.1397 25.6093C24.3548 25.3947 24.5819 25.1924 24.8197 25.0033C24.9177 24.9139 24.9777 24.7903 24.9873 24.658C24.9969 24.5256 24.9553 24.3947 24.8712 24.2921C24.7871 24.1895 24.6668 24.1231 24.5351 24.1066C24.4035 24.0901 24.2705 24.1247 24.1637 24.2033C23.9015 24.4172 23.6502 24.6442 23.4107 24.8833C23.3591 24.9315 23.3179 24.9898 23.2897 25.0545C23.2616 25.1193 23.2471 25.1892 23.2471 25.2598C23.2471 25.3304 23.2616 25.4003 23.2897 25.465C23.3179 25.5298 23.3591 25.5881 23.4107 25.6363C23.516 25.7149 23.6443 25.7567 23.7757 25.7553Z" fill="white"/>
<path d="M20.7147 31.6349H20.8147C20.9401 31.6288 21.0595 31.5794 21.1525 31.4952C21.2455 31.4109 21.3064 31.297 21.3247 31.1729C21.3727 30.8809 21.4247 30.5669 21.4947 30.2729C21.5125 30.2052 21.5165 30.1348 21.5066 30.0656C21.4968 29.9964 21.4732 29.9298 21.4372 29.8699C21.4013 29.8099 21.3537 29.7577 21.2974 29.7164C21.241 29.675 21.1769 29.6454 21.1089 29.6291C21.0409 29.6129 20.9704 29.6104 20.9014 29.6218C20.8324 29.6331 20.7664 29.6582 20.7073 29.6954C20.6481 29.7326 20.597 29.7813 20.5569 29.8386C20.5168 29.8958 20.4885 29.9605 20.4737 30.0289C20.4007 30.3449 20.3277 30.6849 20.2797 31.0289C20.2682 31.0975 20.2704 31.1678 20.2862 31.2356C20.302 31.3034 20.3312 31.3674 20.3719 31.4239C20.4127 31.4804 20.4642 31.5282 20.5236 31.5646C20.5829 31.6009 20.6489 31.6252 20.7177 31.6359L20.7147 31.6349Z" fill="white"/>
<path d="M26.5222 23.8361C26.5971 23.8315 26.6706 23.8149 26.7403 23.7871C27.0176 23.6593 27.3013 23.5458 27.5902 23.4471C27.7229 23.3989 27.8309 23.2999 27.8905 23.172C27.9501 23.0441 27.9565 22.8977 27.9082 22.7651C27.86 22.6325 27.761 22.5245 27.6331 22.4649C27.5052 22.4053 27.3589 22.3989 27.2263 22.4471C26.9103 22.5691 26.5942 22.6901 26.3032 22.8361C26.1782 22.8967 26.0824 23.0045 26.0368 23.1358C25.9912 23.2671 25.9997 23.4111 26.0603 23.5361C26.0981 23.6263 26.1627 23.7026 26.2453 23.7549C26.3279 23.8071 26.4246 23.8327 26.5222 23.8281V23.8361Z" fill="white"/>
<path d="M32.9595 23.1069C33.2515 23.1799 33.5435 23.2529 33.8355 23.3499C33.8899 23.3697 33.9478 23.3778 34.0055 23.3739C34.1146 23.3724 34.2204 23.3364 34.3077 23.271C34.395 23.2056 34.4594 23.1142 34.4915 23.0099C34.5155 22.9447 34.5257 22.8752 34.5214 22.8058C34.517 22.7364 34.4983 22.6686 34.4663 22.6069C34.4343 22.5452 34.3898 22.4908 34.3356 22.4472C34.2814 22.4037 34.2187 22.3719 34.1515 22.354C33.8355 22.254 33.4955 22.16 33.1805 22.087C33.0452 22.0562 32.9032 22.0796 32.785 22.1524C32.6669 22.2251 32.582 22.3413 32.5485 22.476C32.5275 22.6135 32.5578 22.754 32.6338 22.8706C32.7098 22.9872 32.8261 23.0717 32.9605 23.1079L32.9595 23.1069Z" fill="white"/>
<path d="M40.1754 30.0116C40.2077 30.1223 40.2746 30.2197 40.3664 30.2896C40.4582 30.3594 40.57 30.398 40.6854 30.3996C40.7272 30.4033 40.7691 30.3949 40.8064 30.3756C40.874 30.3575 40.9374 30.326 40.9926 30.283C41.0478 30.2399 41.0938 30.1861 41.1278 30.1249C41.1617 30.0637 41.183 29.9962 41.1904 29.9266C41.1977 29.8569 41.1909 29.7865 41.1704 29.7196C41.0704 29.4036 40.9764 29.0636 40.8544 28.7476C40.8061 28.6149 40.7071 28.5069 40.5792 28.4473C40.4513 28.3877 40.305 28.3813 40.1724 28.4296C40.0398 28.4778 39.9317 28.5768 39.8721 28.7047C39.8125 28.8326 39.8061 28.979 39.8544 29.1116C39.9814 29.4236 40.0784 29.7116 40.1754 30.0116Z" fill="white"/>
<path d="M21.3941 34.3565C21.3461 34.0645 21.2941 33.7495 21.2731 33.4565C21.2547 33.3169 21.1844 33.1893 21.0761 33.0993C20.9679 33.0092 20.8297 32.9632 20.6891 32.9705C20.5476 32.9844 20.4173 33.0535 20.3263 33.1628C20.2354 33.2721 20.1911 33.4128 20.2031 33.5545C20.2259 33.8911 20.2747 34.2254 20.3491 34.5545C20.3703 34.6795 20.4361 34.7927 20.5342 34.873C20.6324 34.9534 20.7563 34.9954 20.8831 34.9915H20.9831C21.1178 34.9548 21.2341 34.8697 21.31 34.7525C21.3858 34.6354 21.4158 34.4943 21.3941 34.3565Z" fill="white"/>
<path d="M38.8383 27.1162C38.8863 27.1888 38.9511 27.2487 39.0272 27.291C39.1032 27.3333 39.1883 27.3567 39.2753 27.3592C39.3812 27.36 39.4842 27.3248 39.5673 27.2592C39.6806 27.1797 39.7589 27.0597 39.7861 26.9239C39.8133 26.7882 39.7872 26.6473 39.7133 26.5302C39.5249 26.2536 39.3226 25.9866 39.1073 25.7302C39.0164 25.623 38.887 25.5558 38.747 25.5432C38.6069 25.5306 38.4676 25.5736 38.359 25.663C38.2505 25.7523 38.1815 25.8808 38.1669 26.0207C38.1524 26.1605 38.1935 26.3005 38.2813 26.4102C38.4874 26.6287 38.6738 26.8649 38.8383 27.1162Z" fill="white"/>
<path d="M35.8995 24.2973C36.1665 24.4673 36.4095 24.6373 36.6525 24.8073C36.752 24.8766 36.8713 24.9117 36.9925 24.9073C37.0738 24.9065 37.1538 24.8862 37.2257 24.8481C37.2975 24.81 37.3592 24.7552 37.4055 24.6883C37.4864 24.5775 37.5212 24.4396 37.5026 24.3036C37.4839 24.1676 37.4133 24.0442 37.3055 23.9593C37.0385 23.7653 36.7465 23.5703 36.4795 23.4003C36.3595 23.3292 36.2167 23.3072 36.0808 23.3388C35.945 23.3705 35.8266 23.4534 35.7505 23.5703C35.7106 23.6271 35.6826 23.6915 35.6683 23.7595C35.6539 23.8275 35.6536 23.8976 35.6671 23.9658C35.6807 24.0339 35.7079 24.0986 35.7471 24.1559C35.7864 24.2132 35.8368 24.262 35.8955 24.2993L35.8995 24.2973Z" fill="white"/>
<path d="M30.3112 42.1557C30.0192 42.1317 29.7042 42.1067 29.4112 42.0557C29.3426 42.0445 29.2725 42.047 29.2048 42.0629C29.1372 42.0789 29.0733 42.108 29.0169 42.1486C28.9605 42.1893 28.9126 42.2406 28.876 42.2997C28.8395 42.3588 28.8149 42.4246 28.8037 42.4932C28.7926 42.5618 28.795 42.632 28.811 42.6996C28.8269 42.7673 28.8561 42.8311 28.8967 42.8876C28.9373 42.944 28.9886 42.9918 29.0478 43.0284C29.1069 43.065 29.1726 43.0895 29.2412 43.1007C29.5719 43.157 29.906 43.1904 30.2412 43.2007H30.2902C30.4256 43.1988 30.5549 43.1445 30.651 43.0492C30.7471 42.9539 30.8025 42.8251 30.8057 42.6898C30.8088 42.5545 30.7593 42.4232 30.6677 42.3236C30.576 42.224 30.4493 42.1638 30.3142 42.1557H30.3112Z" fill="white"/>
<path d="M33.4449 41.8158C33.1529 41.8888 32.8609 41.9618 32.5689 42.0098C32.437 42.0312 32.3182 42.1019 32.2366 42.2076C32.155 42.3134 32.1166 42.4462 32.1293 42.5792C32.1421 42.7121 32.2049 42.8353 32.3051 42.9236C32.4053 43.012 32.5354 43.0589 32.6689 43.0548H32.7439C33.0839 43.0058 33.3999 42.9088 33.7439 42.8358C33.8115 42.8177 33.8748 42.7861 33.9299 42.743C33.9851 42.6999 34.031 42.6462 34.0649 42.585C34.0989 42.5238 34.1202 42.4564 34.1276 42.3868C34.135 42.3172 34.1283 42.2468 34.1079 42.1798C34.0929 42.1103 34.0631 42.0448 34.0207 41.9877C33.9783 41.9305 33.9242 41.8831 33.8621 41.8486C33.7999 41.814 33.731 41.7931 33.6601 41.7873C33.5892 41.7815 33.5179 41.7909 33.4509 41.8148L33.4449 41.8158Z" fill="white"/>
<path d="M36.3368 40.4544C36.086 40.6316 35.8256 40.7948 35.5568 40.9433C35.4361 41.0159 35.3484 41.1325 35.3122 41.2686C35.276 41.4046 35.2941 41.5494 35.3628 41.6724C35.4107 41.7523 35.4781 41.8188 35.5588 41.8655C35.6394 41.9122 35.7306 41.9376 35.8238 41.9394C35.91 41.9378 35.9941 41.9126 36.0668 41.8664C36.3589 41.7027 36.6426 41.5244 36.9168 41.3324C37.0301 41.2528 37.1084 41.1328 37.1356 40.997C37.1628 40.8613 37.1367 40.7204 37.0628 40.6034C37.0249 40.5455 36.9758 40.4958 36.9185 40.4571C36.8611 40.4184 36.7967 40.3914 36.7289 40.3778C36.661 40.3643 36.5912 40.3643 36.5234 40.3779C36.4555 40.3916 36.3911 40.4186 36.3338 40.4574L36.3368 40.4544Z" fill="white"/>
<path d="M27.1972 41.4513C26.9152 41.3362 26.6395 41.2064 26.3712 41.0623C26.2495 41.0044 26.1101 40.9959 25.9822 41.0384C25.8544 41.0809 25.7479 41.1713 25.6851 41.2905C25.6223 41.4098 25.6081 41.5487 25.6454 41.6782C25.6827 41.8077 25.7686 41.9177 25.8852 41.9853C26.1772 42.1313 26.4922 42.2773 26.8082 42.4223C26.8781 42.4502 26.952 42.4667 27.0272 42.4713C27.1522 42.4731 27.2738 42.4299 27.3697 42.3498C27.4657 42.2696 27.5298 42.1577 27.5504 42.0343C27.5709 41.911 27.5466 41.7843 27.4818 41.6774C27.417 41.5704 27.316 41.4902 27.1972 41.4513Z" fill="white"/>
<path d="M23.8482 39.1432C23.7503 39.0454 23.6182 38.9895 23.4799 38.9874C23.3415 38.9852 23.2077 39.0369 23.1068 39.1316C23.0059 39.2263 22.9457 39.3565 22.9391 39.4947C22.9324 39.6329 22.9798 39.7683 23.0712 39.8722C23.3142 40.1152 23.5572 40.3582 23.8002 40.5722C23.9011 40.6587 24.0316 40.7024 24.1642 40.6942C24.3108 40.6895 24.4501 40.6286 24.5532 40.5243C24.6458 40.4176 24.6927 40.2788 24.6837 40.1379C24.6748 39.997 24.6106 39.8652 24.5052 39.7712C24.2852 39.5802 24.0682 39.3612 23.8482 39.1432Z" fill="white"/>
<path d="M22.0748 36.5191C22.0472 36.4536 22.0068 36.3944 21.9559 36.3448C21.9051 36.2952 21.8448 36.2563 21.7787 36.2303C21.7126 36.2043 21.642 36.1918 21.571 36.1935C21.5 36.1952 21.43 36.2111 21.3652 36.2402C21.3004 36.2693 21.2421 36.3111 21.1937 36.3631C21.1453 36.4151 21.1078 36.4762 21.0833 36.5429C21.0589 36.6096 21.048 36.6805 21.0514 36.7515C21.0547 36.8224 21.0722 36.892 21.1028 36.9561C21.2488 37.2481 21.3948 37.5631 21.5638 37.8561C21.6119 37.936 21.6795 38.0025 21.7603 38.0492C21.8411 38.0959 21.9325 38.1213 22.0258 38.123C22.1125 38.125 22.1975 38.0994 22.2688 38.0501C22.3895 37.9775 22.4772 37.8609 22.5135 37.7248C22.5497 37.5888 22.5315 37.444 22.4628 37.3211C22.3418 37.0531 22.2008 36.7861 22.0748 36.5191Z" fill="white"/>
<path d="M22.5366 26.6303C22.4166 26.5592 22.2737 26.5371 22.1379 26.5688C22.0021 26.6005 21.8837 26.6834 21.8076 26.8003L21.2976 27.6763C21.237 27.8013 21.2285 27.9453 21.2741 28.0766C21.3197 28.2079 21.4155 28.3157 21.5406 28.3763C21.6151 28.4157 21.6995 28.4327 21.7836 28.4253C21.8795 28.4216 21.9727 28.3926 22.0538 28.3414C22.1349 28.2901 22.2011 28.2183 22.2456 28.1333C22.3916 27.8663 22.5376 27.5993 22.7066 27.3333C22.7745 27.2168 22.7947 27.0786 22.763 26.9475C22.7313 26.8165 22.6502 26.7028 22.5366 26.6303Z" fill="white"/>
<path d="M43.6769 37.7111L41.8847 34.8327L42.5918 33.2165C42.6917 32.9853 42.7433 32.7362 42.7433 32.4843C42.7433 32.2325 42.6917 31.9834 42.5918 31.7522C42.5548 31.6564 42.4816 31.579 42.3881 31.5365C42.2946 31.4941 42.1882 31.49 42.0917 31.5252C41.8511 31.6101 41.6304 31.7436 41.4436 31.9173C41.2567 32.0911 41.1076 32.3015 41.0055 32.5353L40.2984 34.1516L36.966 34.7577C36.8699 34.774 36.7798 34.8152 36.7045 34.8771C36.6292 34.939 36.5715 35.0196 36.5369 35.1107L36.1579 35.9688C36.1515 35.9854 36.1491 36.0032 36.151 36.0208C36.1529 36.0385 36.1591 36.0554 36.1688 36.0702C36.1786 36.085 36.1918 36.0972 36.2073 36.1059C36.2228 36.1145 36.2402 36.1193 36.2579 36.1199L39.5403 35.9688L38.7572 38.2161L37.4701 38.3932C37.3969 38.3997 37.3272 38.427 37.2691 38.4718C37.211 38.5166 37.1669 38.5771 37.142 38.6462L37.042 38.8992C37.0359 38.9141 37.0331 38.93 37.0337 38.946C37.0343 38.9621 37.0384 38.9778 37.0456 38.9921C37.0528 39.0064 37.063 39.019 37.0755 39.029C37.088 39.0391 37.1025 39.0463 37.118 39.0503L38.4052 39.4033C38.3941 39.5154 38.4202 39.6281 38.4795 39.7239C38.5388 39.8197 38.6279 39.8933 38.7332 39.9334C38.8351 39.9765 38.9477 39.9875 39.0559 39.965C39.1642 39.9425 39.2631 39.8875 39.3393 39.8074L40.4505 40.5145C40.4774 40.5258 40.5076 40.527 40.5354 40.5178C40.5631 40.5086 40.5866 40.4896 40.6015 40.4645L40.7015 40.2114C40.7292 40.1462 40.7391 40.0748 40.7301 40.0045C40.7211 39.9342 40.6937 39.8676 40.6505 39.8114L39.8934 38.7512L41.0296 36.6509L43.1509 39.1753C43.1626 39.1886 43.1774 39.1988 43.194 39.2049C43.2107 39.211 43.2286 39.213 43.2461 39.2105C43.2637 39.208 43.2803 39.2012 43.2946 39.1907C43.3089 39.1802 43.3203 39.1663 43.3279 39.1503L43.7069 38.2922C43.7594 38.203 43.7845 38.1004 43.7792 37.9971C43.7738 37.8938 43.7383 37.7943 43.6769 37.7111Z" fill="white"/>
</g>
</g>
</g>
<defs>
<linearGradient id="paint0_linear_438_653" x1="32" y1="0.5" x2="32" y2="64.5" gradientUnits="userSpaceOnUse">
<stop stop-color="#343338"/>
<stop offset="0.25" stop-color="#302E34"/>
<stop offset="0.5" stop-color="#2B2A2F"/>
<stop offset="0.75" stop-color="#27252B"/>
<stop offset="1" stop-color="#232127"/>
</linearGradient>
<clipPath id="clip0_438_653">
<rect width="23.58" height="21.38" fill="white" transform="translate(20.2002 21.8198)"/>
</clipPath>
<clipPath id="clip1_438_653">
<rect width="23.58" height="21.38" fill="white" transform="translate(20.2002 21.8198)"/>
</clipPath>
<clipPath id="clip2_438_653">
<rect width="23.5763" height="21.38" fill="white" transform="translate(20.2021 21.8198)"/>
</clipPath>
</defs>
</svg>
