<svg width="65" height="65" viewBox="0 0 65 65" fill="none" xmlns="http://www.w3.org/2000/svg">
<rect x="0.5" y="0.5" width="64" height="64" rx="10" fill="url(#paint0_linear_438_585)"/>
<g clip-path="url(#clip0_438_585)">
<g clip-path="url(#clip1_438_585)">
<g clip-path="url(#clip2_438_585)">
<path d="M32.4956 43.2803L31.9627 42.9414C31.5049 42.6495 20.7344 35.7277 20.7344 29.3048C20.7344 25.2191 22.6168 22.424 25.7707 21.8322C27.2552 21.5721 28.7841 21.8215 30.1089 22.54C31.4337 23.2585 32.4767 24.4038 33.0684 25.7899C33.1159 25.9112 33.1391 26.0407 33.1365 26.171C33.134 26.3012 33.1059 26.4297 33.0537 26.5491C33.0015 26.6685 32.9264 26.7764 32.8325 26.8667C32.7386 26.957 32.6279 27.028 32.5066 27.0755C32.3853 27.123 32.2558 27.1462 32.1255 27.1437C31.9953 27.1412 31.8668 27.113 31.7474 27.0609C31.628 27.0087 31.5201 26.9335 31.4298 26.8396C31.3394 26.7458 31.2685 26.635 31.221 26.5137C30.8063 25.5514 30.0787 24.7575 29.1561 24.2607C28.2336 23.7638 27.1703 23.5932 26.1386 23.7766C23.9643 24.1875 22.7177 26.2028 22.7177 29.3058C22.7177 33.4804 29.3366 38.7957 32.4956 40.919C35.6545 38.7947 42.2734 33.4804 42.2734 29.3058C42.2734 26.7826 41.4387 24.9512 39.9251 24.1495C39.1992 23.8024 38.3934 23.6564 37.5918 23.7268C36.7902 23.7971 36.0221 24.0812 35.3676 24.5493C35.1501 24.6973 34.8827 24.7527 34.6242 24.7035C34.3658 24.6543 34.1375 24.5045 33.9896 24.2869C33.8416 24.0694 33.7862 23.802 33.8354 23.5436C33.8846 23.2851 34.0344 23.0568 34.252 22.9089C35.2053 22.2408 36.3206 21.8412 37.4813 21.7516C38.6419 21.6621 39.8053 21.8861 40.8498 22.4C42.1214 23.0728 44.2537 24.8662 44.2537 29.3098C44.2537 35.7287 33.4832 42.6545 33.0254 42.9454L32.4956 43.2803Z" fill="white"/>
</g>
</g>
</g>
<defs>
<linearGradient id="paint0_linear_438_585" x1="32.5" y1="0.5" x2="32.5" y2="64.5" gradientUnits="userSpaceOnUse">
<stop stop-color="#343338"/>
<stop offset="0.25" stop-color="#302E34"/>
<stop offset="0.5" stop-color="#2B2A2F"/>
<stop offset="0.75" stop-color="#27252B"/>
<stop offset="1" stop-color="#232127"/>
</linearGradient>
<clipPath id="clip0_438_585">
<rect width="23.53" height="21.56" fill="white" transform="translate(20.7305 21.7202)"/>
</clipPath>
<clipPath id="clip1_438_585">
<rect width="23.53" height="21.56" fill="white" transform="translate(20.7305 21.7202)"/>
</clipPath>
<clipPath id="clip2_438_585">
<rect width="23.5224" height="21.56" fill="white" transform="translate(20.7344 21.7202)"/>
</clipPath>
</defs>
</svg>
