<svg width="65" height="65" viewBox="0 0 65 65" fill="none" xmlns="http://www.w3.org/2000/svg">
<rect x="0.5" y="0.5" width="64" height="64" rx="10" fill="url(#paint0_linear_438_634)"/>
<g clip-path="url(#clip0_438_634)">
<g clip-path="url(#clip1_438_634)">
<g clip-path="url(#clip2_438_634)">
<path d="M34.3069 33.0177H31.8093L33.0461 29.6399C33.1192 29.4437 33.1114 29.2265 33.0244 29.0361C32.9374 28.8456 32.7783 28.6976 32.582 28.6244C32.3858 28.5513 32.1686 28.5591 31.9782 28.6461C31.7877 28.7332 31.6397 28.8923 31.5665 29.0885L29.9331 33.5263C29.8926 33.6466 29.8796 33.7745 29.8949 33.9005C29.9103 34.0265 29.9537 34.1475 30.022 34.2546C30.0939 34.3567 30.1894 34.4401 30.3003 34.4977C30.4113 34.5553 30.5344 34.5853 30.6594 34.5852H33.157L31.9202 37.963C31.8496 38.1595 31.8587 38.3758 31.9455 38.5657C32.0323 38.7556 32.19 38.9039 32.3848 38.9791C32.4709 39.0044 32.5598 39.0191 32.6495 39.023C32.8088 39.0249 32.9646 38.9768 33.0952 38.8856C33.2258 38.7944 33.3246 38.6647 33.3778 38.5145L35.0112 34.0767C35.0517 33.9564 35.0648 33.8285 35.0494 33.7025C35.034 33.5765 34.9906 33.4555 34.9223 33.3484C34.857 33.2443 34.7658 33.159 34.6575 33.1009C34.5493 33.0427 34.4278 33.0137 34.3049 33.0167L34.3069 33.0177Z" fill="white"/>
<path d="M36.8056 24.6504H28.1938C27.5673 24.6509 26.9666 24.9 26.5237 25.343C26.0807 25.786 25.8316 26.3867 25.8311 27.0131V40.6172C25.8316 41.2437 26.0807 41.8443 26.5237 42.2873C26.9666 42.7303 27.5673 42.9794 28.1938 42.9799H36.8056C37.4321 42.9794 38.0327 42.7303 38.4757 42.2873C38.9187 41.8443 39.1678 41.2437 39.1683 40.6172V27.0131C39.1678 26.3867 38.9187 25.786 38.4757 25.343C38.0327 24.9 37.4321 24.6509 36.8056 24.6504ZM37.5788 40.6152C37.5799 40.7204 37.56 40.8248 37.5202 40.9223C37.4804 41.0197 37.4216 41.1083 37.3471 41.1827C37.2727 41.2571 37.1842 41.316 37.0867 41.3557C36.9893 41.3955 36.8849 41.4155 36.7796 41.4144H28.1678C28.0626 41.4155 27.9582 41.3955 27.8607 41.3557C27.7633 41.316 27.6747 41.2571 27.6003 41.1827C27.5259 41.1083 27.467 41.0197 27.4273 40.9223C27.3875 40.8248 27.3675 40.7204 27.3686 40.6152V27.0111C27.3675 26.9059 27.3875 26.8015 27.4273 26.704C27.467 26.6066 27.5259 26.518 27.6003 26.4436C27.6747 26.3692 27.7633 26.3104 27.8607 26.2706C27.9582 26.2308 28.0626 26.2108 28.1678 26.2119H36.7796C36.8849 26.2108 36.9893 26.2308 37.0867 26.2706C37.1842 26.3104 37.2727 26.3692 37.3471 26.4436C37.4216 26.518 37.4804 26.6066 37.5202 26.704C37.56 26.8015 37.5799 26.9059 37.5788 27.0111V40.6152Z" fill="white"/>
<path d="M30.4679 23.5676H34.5061C34.547 23.5689 34.5876 23.5618 34.6256 23.5467C34.6637 23.5316 34.6982 23.5089 34.7271 23.48C34.756 23.4511 34.7787 23.4166 34.7938 23.3785C34.8089 23.3405 34.816 23.2998 34.8148 23.2589V22.3098C34.8161 22.2695 34.8093 22.2293 34.7947 22.1916C34.7801 22.154 34.7581 22.1196 34.7299 22.0907C34.7017 22.0618 34.668 22.0388 34.6307 22.0233C34.5934 22.0077 34.5534 21.9998 34.5131 22.0001H30.4749C30.434 21.9989 30.3933 22.006 30.3553 22.0211C30.3173 22.0362 30.2828 22.0589 30.2538 22.0878C30.2249 22.1167 30.2022 22.1512 30.1872 22.1892C30.1721 22.2273 30.1649 22.268 30.1662 22.3088V23.2579C30.1648 23.2987 30.1718 23.3394 30.1867 23.3774C30.2016 23.4154 30.2241 23.4499 30.2528 23.4789C30.2815 23.5079 30.3158 23.5307 30.3537 23.546C30.3915 23.5613 30.4321 23.5686 30.4729 23.5676H30.4679Z" fill="white"/>
</g>
</g>
</g>
<defs>
<linearGradient id="paint0_linear_438_634" x1="32.5" y1="0.5" x2="32.5" y2="64.5" gradientUnits="userSpaceOnUse">
<stop stop-color="#343338"/>
<stop offset="0.25" stop-color="#302E34"/>
<stop offset="0.5" stop-color="#2B2A2F"/>
<stop offset="0.75" stop-color="#27252B"/>
<stop offset="1" stop-color="#232127"/>
</linearGradient>
<clipPath id="clip0_438_634">
<rect width="13.34" height="20.98" fill="white" transform="translate(25.8301 22)"/>
</clipPath>
<clipPath id="clip1_438_634">
<rect width="13.34" height="20.98" fill="white" transform="translate(25.8301 22)"/>
</clipPath>
<clipPath id="clip2_438_634">
<rect width="13.3373" height="20.98" fill="white" transform="translate(25.8311 22)"/>
</clipPath>
</defs>
</svg>
