<svg width="65" height="65" viewBox="0 0 65 65" fill="none" xmlns="http://www.w3.org/2000/svg">
<rect x="0.5" y="0.5" width="64" height="64" rx="10" fill="url(#paint0_linear_438_607)"/>
<g clip-path="url(#clip0_438_607)">
<g clip-path="url(#clip1_438_607)">
<g clip-path="url(#clip2_438_607)">
<path d="M32.5789 31.3301H21.8549C21.7293 31.3301 21.605 31.3548 21.489 31.4029C21.373 31.451 21.2677 31.5214 21.1789 31.6102C21.0902 31.6991 21.0197 31.8046 20.9718 31.9206C20.9238 32.0367 20.8993 32.161 20.8994 32.2865V39.1225C20.8994 39.3759 21 39.6189 21.1792 39.7981C21.3584 39.9773 21.6015 40.078 21.8549 40.078H32.5789C32.7045 40.0781 32.8289 40.0535 32.945 40.0055C33.061 39.9575 33.1664 39.8872 33.2553 39.7984C33.3441 39.7097 33.4146 39.6043 33.4627 39.4883C33.5108 39.3723 33.5355 39.2481 33.5355 39.1225V32.2906C33.5355 32.165 33.5108 32.0406 33.4627 31.9245C33.4146 31.8085 33.3442 31.7031 33.2554 31.6142C33.1666 31.5254 33.061 31.4549 32.945 31.4068C32.8289 31.3588 32.7046 31.334 32.5789 31.334V31.3301ZM31.6224 38.1659H22.8105V33.2412H31.6224V38.1659Z" fill="white"/>
<path d="M30.6375 41.3701H23.7867C23.5332 41.3701 23.2902 41.4708 23.111 41.65C22.9318 41.8292 22.8311 42.0723 22.8311 42.3257C22.8311 42.5792 22.9318 42.8221 23.111 43.0013C23.2902 43.1805 23.5332 43.2812 23.7867 43.2812H30.6375C30.8909 43.2812 31.134 43.1805 31.3132 43.0013C31.4924 42.8221 31.593 42.5792 31.593 42.3257C31.593 42.0723 31.4924 41.8292 31.3132 41.65C31.134 41.4708 30.8909 41.3701 30.6375 41.3701Z" fill="white"/>
<path d="M43.1468 31.4688H37.1625C37.037 31.4686 36.9127 31.4933 36.7966 31.5412C36.6806 31.5892 36.575 31.6595 36.4862 31.7483C36.3974 31.837 36.327 31.9423 36.2789 32.0583C36.2308 32.1743 36.2061 32.2987 36.2061 32.4242V42.3247C36.2061 42.4503 36.2308 42.5746 36.2789 42.6906C36.327 42.8066 36.3974 42.912 36.4862 43.0008C36.575 43.0895 36.6806 43.1599 36.7966 43.2078C36.9127 43.2558 37.037 43.2804 37.1625 43.2803H43.1468C43.4002 43.2803 43.6433 43.1796 43.8225 43.0004C44.0017 42.8212 44.1024 42.5781 44.1024 42.3247V32.4242C44.1024 32.1708 44.0017 31.9279 43.8225 31.7487C43.6433 31.5694 43.4002 31.4688 43.1468 31.4688ZM42.1912 41.3692H38.1222V33.3729H42.1942L42.1912 41.3692Z" fill="white"/>
<path d="M36.4128 28.8209C36.5349 28.9511 36.691 29.0446 36.8634 29.0906C37.0359 29.1367 37.2177 29.1335 37.3885 29.0815C37.5592 29.0295 37.712 28.9306 37.8294 28.7962C37.9469 28.6618 38.0243 28.4972 38.0531 28.3211L38.6938 24.4869C38.7355 24.2369 38.6763 23.9805 38.529 23.7742C38.3818 23.568 38.1586 23.4287 37.9086 23.387C37.6586 23.3452 37.4023 23.4045 37.196 23.5517C36.9898 23.6989 36.8504 23.922 36.8086 24.172L36.4858 26.1012L32.6446 22.0031C32.4712 21.8175 32.2312 21.7084 31.9774 21.6998C31.7236 21.6911 31.4767 21.7837 31.2912 21.9571C31.1056 22.1305 30.9965 22.3705 30.9879 22.6243C30.9792 22.8781 31.0718 23.1249 31.2452 23.3105L36.4128 28.8209Z" fill="white"/>
<path d="M29.0899 23.3625C28.9678 23.2323 28.8117 23.1389 28.6393 23.0929C28.4669 23.0468 28.2849 23.05 28.1141 23.102C27.9434 23.1541 27.7908 23.2528 27.6733 23.3872C27.5558 23.5216 27.4784 23.6862 27.4497 23.8623L26.809 27.6976C26.7672 27.9477 26.8265 28.2041 26.9738 28.4105C27.1211 28.6169 27.3444 28.7563 27.5945 28.798C27.8446 28.8398 28.1011 28.7805 28.3075 28.6332C28.5139 28.4858 28.6533 28.2625 28.695 28.0124L29.0179 26.0833L32.8591 30.1814C33.0325 30.367 33.2725 30.476 33.5263 30.4846C33.7801 30.4932 34.0269 30.4008 34.2125 30.2274C34.3981 30.054 34.5071 29.814 34.5157 29.5602C34.5243 29.3064 34.4319 29.0596 34.2585 28.874L29.0899 23.3625Z" fill="white"/>
</g>
</g>
</g>
<defs>
<linearGradient id="paint0_linear_438_607" x1="32.5" y1="0.5" x2="32.5" y2="64.5" gradientUnits="userSpaceOnUse">
<stop stop-color="#343338"/>
<stop offset="0.25" stop-color="#302E34"/>
<stop offset="0.5" stop-color="#2B2A2F"/>
<stop offset="0.75" stop-color="#27252B"/>
<stop offset="1" stop-color="#232127"/>
</linearGradient>
<clipPath id="clip0_438_607">
<rect width="23.22" height="21.58" fill="white" transform="translate(20.8896 21.7002)"/>
</clipPath>
<clipPath id="clip1_438_607">
<rect width="23.22" height="21.58" fill="white" transform="translate(20.8896 21.7002)"/>
</clipPath>
<clipPath id="clip2_438_607">
<rect width="23.2072" height="21.58" fill="white" transform="translate(20.8955 21.7002)"/>
</clipPath>
</defs>
</svg>
