<svg width="28" height="25" viewBox="0 0 28 25" fill="none" xmlns="http://www.w3.org/2000/svg">
<g clip-path="url(#clip0_438_623)">
<g clip-path="url(#clip1_438_623)">
<g clip-path="url(#clip2_438_623)">
<path d="M10.4569 24.53C11.3715 24.53 12.113 23.7885 12.113 22.8739C12.113 21.9592 11.3715 21.2178 10.4569 21.2178C9.54225 21.2178 8.80078 21.9592 8.80078 22.8739C8.80078 23.7885 9.54225 24.53 10.4569 24.53Z" fill="white"/>
<path d="M20.1112 24.53C21.0258 24.53 21.7673 23.7885 21.7673 22.8739C21.7673 21.9592 21.0258 21.2178 20.1112 21.2178C19.1965 21.2178 18.4551 21.9592 18.4551 22.8739C18.4551 23.7885 19.1965 24.53 20.1112 24.53Z" fill="white"/>
<path d="M27.3813 3.69445H7.53201L6.69246 0.450195H1.56224C0.90659 0.450195 0.59375 1.12184 0.59375 1.77748C0.59375 2.43313 0.956567 3.0448 1.61221 3.0448H4.71953L9.0172 19.6458H22.7438C23.4034 19.6458 23.9541 19.4459 23.9332 18.2106C23.9337 17.879 23.8041 17.5603 23.5721 17.3233C23.3402 17.0863 23.0244 16.9498 22.6928 16.9433H10.9892L10.6993 15.4561H23.9292L27.3813 3.69445ZM9.9537 13.0794L8.37655 6.7378H23.9271L22.1361 13.0794H9.9537Z" fill="white"/>
</g>
</g>
</g>
<defs>
<clipPath id="clip0_438_623">
<rect width="26.8" height="24.08" fill="white" transform="translate(0.589844 0.450195)"/>
</clipPath>
<clipPath id="clip1_438_623">
<rect width="26.8" height="24.08" fill="white" transform="translate(0.589844 0.450195)"/>
</clipPath>
<clipPath id="clip2_438_623">
<rect width="26.7865" height="24.08" fill="white" transform="translate(0.595703 0.450195)"/>
</clipPath>
</defs>
</svg>
