<svg width="65" height="65" viewBox="0 0 65 65" fill="none" xmlns="http://www.w3.org/2000/svg">
<rect x="0.5" y="0.5" width="64" height="64" rx="10" fill="url(#paint0_linear_438_740)"/>
<g clip-path="url(#clip0_438_740)">
<g clip-path="url(#clip1_438_740)">
<g clip-path="url(#clip2_438_740)">
<path d="M31.2677 37.3407C31.7913 36.8 32.144 36.117 32.2817 35.377C32.4193 34.637 32.3358 33.8728 32.0416 33.18C31.7473 32.4872 31.2554 31.8964 30.6274 31.4816C29.9993 31.0668 29.2628 30.8463 28.5101 30.8477C27.7574 30.849 27.0219 31.0722 26.3953 31.4893C25.7687 31.9064 25.2789 32.4989 24.9872 33.1928C24.6955 33.8867 24.6148 34.6512 24.7551 35.3907C24.8955 36.1302 25.2507 36.812 25.7764 37.3507C24.9246 37.7102 24.1903 38.3008 23.6566 39.0557C23.1228 39.8106 22.8108 40.6997 22.7559 41.6226C22.754 41.8408 22.8382 42.051 22.9904 42.2074C23.1425 42.3639 23.3503 42.454 23.5685 42.4582H23.5854C23.8016 42.4572 24.009 42.3722 24.1636 42.2211C24.3183 42.07 24.408 41.8647 24.414 41.6486C24.423 41.3307 24.6139 38.5362 28.5229 38.5132C32.47 38.4972 32.8059 41.4667 32.8309 41.8005C32.8434 42.0117 32.9362 42.2101 33.0902 42.355C33.2443 42.5 33.4479 42.5805 33.6594 42.5801H33.7114C33.9306 42.5665 34.1354 42.4664 34.2808 42.3019C34.4262 42.1373 34.5004 41.9218 34.487 41.7026C34.4067 40.7488 34.0632 39.836 33.4948 39.0659C32.9264 38.2958 32.1554 37.6985 31.2677 37.3407ZM28.5169 32.5121C29.0927 32.5121 29.6449 32.7408 30.0521 33.148C30.4592 33.5551 30.6879 34.1073 30.6879 34.683C30.6879 35.2588 30.4592 35.811 30.0521 36.2181C29.6449 36.6252 29.0927 36.854 28.5169 36.854C27.9412 36.854 27.3891 36.6252 26.9819 36.2181C26.5748 35.811 26.346 35.2588 26.346 34.683C26.346 34.1073 26.5748 33.5551 26.9819 33.148C27.3891 32.7408 27.9412 32.5121 28.5169 32.5121Z" fill="white"/>
<path d="M42.2442 23.2348C42.2442 23.0151 42.157 22.8043 42.0016 22.6489C41.8462 22.4935 41.6354 22.4063 41.4157 22.4063H29.2216C29.0019 22.4062 28.7911 22.4935 28.6358 22.6489C28.4804 22.8043 28.3931 23.0151 28.3931 23.2348V29.2828C28.3892 29.394 28.4079 29.5048 28.4477 29.6086C28.4876 29.7125 28.548 29.8072 28.6253 29.8872C28.7025 29.9672 28.7951 30.0309 28.8975 30.0743C28.9999 30.1178 29.1099 30.1402 29.2212 30.1402C29.3324 30.1402 29.4426 30.1178 29.545 30.0743C29.6474 30.0309 29.7399 29.9672 29.8172 29.8872C29.8945 29.8072 29.9548 29.7125 29.9947 29.6086C30.0346 29.5048 30.0531 29.394 30.0492 29.2828V24.0644H40.5841V33.8696C40.5854 33.8963 40.5881 33.923 40.5921 33.9495C40.3198 34.8565 39.7296 35.6351 38.9298 36.1424C39.182 35.3398 39.2121 34.4839 39.0168 33.6656C39.0168 33.6466 39.0028 33.6307 38.9968 33.6127C38.9881 33.5841 38.9777 33.5561 38.9658 33.5287C38.9548 33.5047 38.9419 33.4838 38.9289 33.4608C38.9154 33.4364 38.9008 33.4126 38.8849 33.3898C38.8699 33.3694 38.8535 33.35 38.8359 33.3318C38.8179 33.3128 38.7979 33.2888 38.7779 33.2688C38.758 33.2489 38.744 33.2409 38.729 33.2269C38.7038 33.2064 38.6774 33.1874 38.6501 33.1699C38.6351 33.1609 38.6201 33.1529 38.6041 33.1449C38.5718 33.1264 38.5384 33.1101 38.504 33.096L38.4632 33.083C38.4256 33.0705 38.3872 33.0607 38.3482 33.0539C38.3352 33.0539 38.3212 33.0539 38.3082 33.0539C38.2751 33.0485 38.2418 33.0452 38.2083 33.044H34.2282C34.0084 33.044 33.7977 33.1313 33.6423 33.2867C33.4869 33.442 33.3996 33.6528 33.3996 33.8726C33.3996 34.0923 33.4869 34.3031 33.6423 34.4584C33.7977 34.6138 34.0084 34.7011 34.2282 34.7011H37.4776C37.5047 35.1316 37.4065 35.5607 37.1947 35.9365C37.0613 36.1237 36.8897 36.2804 36.6912 36.3964C36.4927 36.5123 36.2719 36.5849 36.0433 36.6092C35.6305 36.6851 34.663 36.8621 34.687 37.7087C34.692 37.8966 34.782 38.5162 35.7105 38.6342C35.8488 38.6503 35.988 38.658 36.1273 38.6572C37.7605 38.6572 41.2247 37.7716 42.2052 34.3373C42.2092 34.182 42.22 34.0275 42.2373 33.8735L42.2442 23.2348Z" fill="white"/>
<path d="M32.3515 27.1757H36.6883C36.903 27.1682 37.1064 27.0777 37.2556 26.9233C37.4048 26.7688 37.4881 26.5624 37.4881 26.3476C37.4881 26.1328 37.4048 25.9265 37.2556 25.772C37.1064 25.6175 36.903 25.527 36.6883 25.5195H32.3515C32.2403 25.5157 32.1296 25.5343 32.0257 25.5741C31.9219 25.614 31.8271 25.6744 31.7471 25.7517C31.6671 25.8289 31.6035 25.9215 31.56 26.0239C31.5166 26.1263 31.4941 26.2364 31.4941 26.3476C31.4941 26.4589 31.5166 26.569 31.56 26.6714C31.6035 26.7738 31.6671 26.8664 31.7471 26.9436C31.8271 27.0209 31.9219 27.0813 32.0257 27.1212C32.1296 27.161 32.2403 27.1796 32.3515 27.1757Z" fill="white"/>
<path d="M32.351 29.7816H36.6879C36.9025 29.7742 37.1059 29.6837 37.2551 29.5292C37.4043 29.3747 37.4876 29.1683 37.4876 28.9536C37.4876 28.7388 37.4043 28.5324 37.2551 28.3779C37.1059 28.2234 36.9025 28.1329 36.6879 28.1255H32.351C32.1313 28.1255 31.9205 28.2128 31.7651 28.3682C31.6097 28.5236 31.5225 28.7344 31.5225 28.9541C31.5225 29.1739 31.6097 29.3846 31.7651 29.54C31.9205 29.6954 32.1313 29.7827 32.351 29.7827V29.7816Z" fill="white"/>
</g>
</g>
</g>
<defs>
<linearGradient id="paint0_linear_438_740" x1="32.5" y1="0.5" x2="32.5" y2="64.5" gradientUnits="userSpaceOnUse">
<stop stop-color="#343338"/>
<stop offset="0.25" stop-color="#302E34"/>
<stop offset="0.5" stop-color="#2B2A2F"/>
<stop offset="0.75" stop-color="#27252B"/>
<stop offset="1" stop-color="#232127"/>
</linearGradient>
<clipPath id="clip0_438_740">
<rect width="19.5" height="20.17" fill="white" transform="translate(22.75 22.4102)"/>
</clipPath>
<clipPath id="clip1_438_740">
<rect width="19.5" height="20.17" fill="white" transform="translate(22.75 22.4102)"/>
</clipPath>
<clipPath id="clip2_438_740">
<rect width="19.4893" height="20.17" fill="white" transform="translate(22.7549 22.4102)"/>
</clipPath>
</defs>
</svg>
